<svg preserveAspectRatio="none" width="100%" height="100%" overflow="visible" style="display: block;" viewBox="0 0 29.6667 29.6667" fill="none" xmlns="http://www.w3.org/2000/svg">
<path id="Icon" d="M5.5 18.8333H4.16667C3.45942 18.8333 2.78115 18.5524 2.28105 18.0523C1.78095 17.5522 1.5 16.8739 1.5 16.1667V4.16667C1.5 3.45942 1.78095 2.78115 2.28105 2.28105C2.78115 1.78095 3.45942 1.5 4.16667 1.5H16.1667C16.8739 1.5 17.5522 1.78095 18.0523 2.28105C18.5524 2.78115 18.8333 3.45942 18.8333 4.16667V5.5M13.5 10.8333H25.5C26.9728 10.8333 28.1667 12.0272 28.1667 13.5V25.5C28.1667 26.9728 26.9728 28.1667 25.5 28.1667H13.5C12.0272 28.1667 10.8333 26.9728 10.8333 25.5V13.5C10.8333 12.0272 12.0272 10.8333 13.5 10.8333Z" stroke="var(--stroke-0, #1E1E1E)" stroke-width="3" stroke-linecap="round" stroke-linejoin="round"/>
</svg>
