<svg xmlns="http://www.w3.org/2000/svg" width="86" height="28" viewBox="0 0 86 28" fill="none">
  <!-- Meta Infinity Symbol -->
  <path d="M13.77 5.34C11.52 5.34 9.63 6.84 7.94 9.09C6.25 6.84 4.36 5.34 2.11 5.34C-0.55 5.34 -2.5 8.23 -2.5 12.09C-2.5 17.02 1.83 21.66 7.94 21.66C10.5 21.66 12.6 19.98 14.5 17.04L15.29 15.82L16.08 17.04C17.98 19.98 20.08 21.66 22.64 21.66C28.75 21.66 33.08 17.02 33.08 12.09C33.08 8.23 31.13 5.34 28.47 5.34C26.22 5.34 24.33 6.84 22.64 9.09C20.95 6.84 19.06 5.34 16.81 5.34C14.56 5.34 12.67 6.84 10.98 9.09L7.94 13.37L4.9 9.09C6.59 6.84 8.48 5.34 10.73 5.34H13.77ZM6.32 18.11C4.26 18.11 2.87 16.56 2.87 13.68C2.87 9.63 5.17 6.57 7.94 6.57C9.43 6.57 10.93 7.7 12.42 10.16L12.96 10.89C10.77 14.28 8.72 18.11 6.32 18.11ZM24.26 18.11C21.86 18.11 19.81 14.28 17.62 10.89L18.16 10.16C19.65 7.7 21.15 6.57 22.64 6.57C25.41 6.57 27.71 9.63 27.71 13.68C27.71 16.56 26.32 18.11 24.26 18.11Z" transform="translate(2, 0)" fill="#0866FF"/>
  <!-- M -->
  <path d="M44.5 19.5V8.5L48.5 15.5L52.5 8.5V19.5H54.5V6H52L48.5 12.5L45 6H42.5V19.5H44.5Z" fill="#1C2128"/>
  <!-- e -->
  <path d="M60.5 17.5C59 17.5 58 16.5 57.8 15H65.5C65.5 11.5 63.5 9.5 60.5 9.5C57.5 9.5 55.5 11.5 55.5 14.5C55.5 17.5 57.5 19.5 60.5 19.5C62.5 19.5 64 18.5 65 17L63.5 16C62.8 17 61.8 17.5 60.5 17.5ZM60.5 11C62 11 63 12 63.2 13.5H57.8C58 12 59 11 60.5 11Z" fill="#1C2128"/>
  <!-- t -->
  <path d="M71 19.5C73 19.5 74 18.5 74 16.5V11.5H76V10H74V7H72V10H70V11.5H72V16.5C72 17.5 71.5 18 70.5 18H70V19.5H71Z" fill="#1C2128"/>
  <!-- a -->
  <path d="M81.5 19.5C83.5 19.5 85 18.5 85.5 17V19.5H87.5V13C87.5 10.5 86 9.5 83.5 9.5C81 9.5 79.5 10.5 79 12.5L81 13C81.3 12 82 11.5 83.5 11.5C85 11.5 85.5 12 85.5 13V13.5H83C80 13.5 78.5 14.5 78.5 16.5C78.5 18.5 80 19.5 81.5 19.5ZM82 18C81 18 80.5 17.5 80.5 16.5C80.5 15.5 81 15 83 15H85.5V15.5C85.5 17 84 18 82 18Z" fill="#1C2128"/>
</svg>
